# xmcd
#
# Track frame offsets: 
#        150
#        14721
#        26499
#        40812
#        51880
#        65434
#        76052
#        87487
#        99451
#        115130
#
# Disc length: 1696 seconds
#
# Revision: 0
# Processed by: cddbd v1.5.1PL0 Copyright (c) Steve Scherf et al.
# Submitted via: ExactAudioCopy v0.95a5
#
DISCID=79069e0a
DTITLE=Juan Torres - COLECCION DE ORO
DYEAR=2003
DGENRE=Musica Norteña
TTITLE0=Idos de la Mente
TTITLE1=Bonita Finca de Adobe
TTITLE2=Vestida de Color de Rosa
TTITLE3=Ni por mil Puñados de Oro
TTITLE4=Me Cai de la Nube
TTITLE5=Me Voy me voy
TTITLE6=Piquetes de Hormiga
TTITLE7=Polvo Maldito
TTITLE8=Contrabando Y Traicion
TTITLE9=Por esa Calle Vive
EXTD=
EXTT0=
EXTT1=
EXTT2=
EXTT3=
EXTT4=
EXTT5=
EXTT6=
EXTT7=
EXTT8=
EXTT9=
PLAYORDER=
